<?xml version="1.0" encoding="iso-8859-1"?>
<!-- Generator: Adobe Illustrator 19.0.0, SVG Export Plug-In . SVG Version: 6.00 Build 0)  -->
<svg version="1.1" id="Layer_1" xmlns="http://www.w3.org/2000/svg" xmlns:xlink="http://www.w3.org/1999/xlink" x="0px" y="0px"
	 viewBox="0 0 374.865 374.865" style="enable-background:new 0 0 374.865 374.865;" xml:space="preserve">
<g>
	<path style="fill:#2D3740;" d="M263.956,288.893h-6.826V94.3c0-16.924,0-40.338,0-40.338H156.781
		c13.232,8.547,21.999,23.414,21.999,40.338l0.001,0.002v194.592c0,21.637,17.538,39.176,39.175,39.176h46
		c10.818,0,19.588-8.77,19.588-19.588C283.544,297.663,274.774,288.893,263.956,288.893z"/>
	<path style="fill:#2D3740;" d="M110.66,288.893h-6.826V91.036c0.021-14.846,6.781-28.109,17.385-36.9
		c-5.946,0.34-11.757,1.191-17.385,2.51v-0.002c-44.907,10.525-78.349,50.828-78.349,98.943v133.307
		c0,21.637,17.538,39.176,39.175,39.176h46c10.818,0,19.588-8.77,19.588-19.588C130.248,297.663,121.479,288.893,110.66,288.893z"/>
	<circle style="fill:#333E48;" cx="22.099" cy="80.478" r="22.099"/>
	<path style="fill:#DADBDC;" d="M286.997,53.962H103.293v0.021c-0.556-0.01-1.109-0.021-1.667-0.021C45.5,53.962,0,99.462,0,155.587
		c0,56.127,45.5,101.627,101.626,101.627h81.729c26.897,0,51.35-10.455,69.527-27.516h34.115c48.529,0,87.868-39.34,87.868-87.867
		C374.865,93.302,335.526,53.962,286.997,53.962z"/>
	<path style="fill:#333E48;" d="M238.471,288.893h-6.826V94.3c0-16.924,8.767-31.791,21.999-40.338H131.296
		c13.232,8.547,21.999,23.414,21.999,40.338l0.001,0.002v194.592c0,21.637,17.538,39.176,39.175,39.176h46
		c10.818,0,19.588-8.77,19.588-19.588C258.059,297.663,249.289,288.893,238.471,288.893z"/>
	<path style="fill:#333E48;" d="M85.175,288.893h-6.826V91.036c0.021-14.846,6.781-28.109,17.385-36.9
		c-5.946,0.34-11.757,1.191-17.385,2.51v-0.002C33.441,67.169,0,107.472,0,155.587v133.307c0,21.637,17.538,39.176,39.175,39.176h46
		c10.818,0,19.588-8.77,19.588-19.588C104.763,297.663,95.993,288.893,85.175,288.893z"/>
	<g>
		<path style="fill:#333E48;" d="M337.525,100.894c-6.628-6.627-17.373-6.625-24.002,0.002l-18.91,18.91
			c-6.629,6.629-6.629,17.375-0.002,24.002c6.629,6.629,17.376,6.631,24.004,0.002l18.91-18.91
			C344.154,118.271,344.154,107.522,337.525,100.894z"/>
		<circle style="fill:#2D3740;" cx="325.525" cy="112.896" r="7.585"/>
	</g>
	<g>
		<path style="fill:#333E48;" d="M268.111,94.626c-3.951,0-7.664-1.537-10.455-4.328c-0.4-0.4-0.781-0.826-1.131-1.27l-0.134-0.168
			l-0.135-0.182c-3.709-4.994-5.521-11.197-5.087-17.445c0.438-6.318,3.147-12.266,7.628-16.746
			c4.482-4.48,10.429-7.191,16.748-7.629c0.603-0.041,1.216-0.063,1.821-0.063c5.603,0,11.158,1.834,15.644,5.166l0.348,0.266
			c0.452,0.361,0.881,0.744,1.274,1.143c2.766,2.764,4.304,6.479,4.304,10.43s-1.537,7.664-4.328,10.455l-16.042,16.043
			C275.775,93.089,272.063,94.626,268.111,94.626z"/>
		<path style="fill:#2D3740;" d="M272.113,83.845c-2.207,2.207-5.798,2.207-8.005,0c-0.153-0.154-0.299-0.316-0.433-0.486
			l-0.039-0.049l-0.037-0.051c-2.428-3.268-3.609-7.314-3.326-11.393c0.286-4.121,2.054-8.002,4.978-10.926
			c2.925-2.924,6.805-4.691,10.926-4.979c4.079-0.283,8.125,0.898,11.394,3.326l0.051,0.037l0.049,0.039
			c0.17,0.135,0.334,0.279,0.485,0.434c2.208,2.205,2.208,5.797,0,8.004L272.113,83.845z"/>
	</g>
	<g>
		<path style="fill:#333E48;" d="M374.865,133.829c0-1.646-1.335-2.98-2.979-2.98l-5.189,0.064
			c-5.469,0.023-6.712,3.137-2.762,6.918l4.404,4.219c1.828,1.752,4.167,2.66,6.525,2.74v-10.961H374.865z"/>
	</g>
</g>
<g>
</g>
<g>
</g>
<g>
</g>
<g>
</g>
<g>
</g>
<g>
</g>
<g>
</g>
<g>
</g>
<g>
</g>
<g>
</g>
<g>
</g>
<g>
</g>
<g>
</g>
<g>
</g>
<g>
</g>
</svg>
